<svg width="77" height="37" viewBox="0 0 77 37" fill="none" xmlns="http://www.w3.org/2000/svg">
<path d="M19.4674 7.9527L25.4887 18.3819H13.4461L19.4674 7.9527Z" fill="white" style="fill:white;fill:white;fill-opacity:1;"/>
<path d="M9.73402 20.4677L15.7553 30.8968H3.71274L9.73402 20.4677Z" fill="white" style="fill:white;fill:white;fill-opacity:1;"/>
<path d="M34.9943 7.05061L28.8844 17.4281L22.9522 6.94802L34.9943 7.05061Z" fill="white" style="fill:white;fill:white;fill-opacity:1;"/>
<path d="M34.997 30.5576L22.9553 30.7011L28.8519 20.201L34.997 30.5576Z" fill="white" style="fill:white;fill:white;fill-opacity:1;"/>
<path d="M13.2402 19.5185L25.2826 19.5795L19.2086 29.978L13.2402 19.5185Z" fill="white" style="fill:white;fill:white;fill-opacity:1;"/>
<path d="M3.50682 7.00354L15.5492 7.06449L9.47523 17.463L3.50682 7.00354Z" fill="white" style="fill:white;fill:white;fill-opacity:1;"/>
<path d="M50.8963 28.9999V7.18176H59.5043C61.1591 7.18176 62.5689 7.49781 63.7337 8.12991C64.8984 8.75491 65.7862 9.62494 66.397 10.74C67.0149 11.8479 67.3239 13.1264 67.3239 14.5752C67.3239 16.0241 67.0114 17.3025 66.3864 18.4104C65.7614 19.5184 64.8558 20.3813 63.6697 20.9992C62.4908 21.6171 61.0632 21.9261 59.3871 21.9261H53.9006V18.2293H58.6413C59.5291 18.2293 60.2607 18.0766 60.8359 17.7712C61.4183 17.4587 61.8516 17.0291 62.1357 16.4822C62.4268 15.9282 62.5724 15.2926 62.5724 14.5752C62.5724 13.8508 62.4268 13.2187 62.1357 12.6789C61.8516 12.132 61.4183 11.7095 60.8359 11.4112C60.2536 11.1058 59.5149 10.9531 58.62 10.9531H55.5092V28.9999H50.8963ZM71.8622 29.2769C71.1591 29.2769 70.5554 29.0283 70.0511 28.5312C69.554 28.0269 69.3054 27.4232 69.3054 26.7201C69.3054 26.0241 69.554 25.4275 70.0511 24.9303C70.5554 24.4332 71.1591 24.1846 71.8622 24.1846C72.544 24.1846 73.1406 24.4332 73.652 24.9303C74.1634 25.4275 74.419 26.0241 74.419 26.7201C74.419 27.1889 74.2983 27.6185 74.0568 28.0092C73.8224 28.3927 73.5135 28.7016 73.13 28.936C72.7464 29.1633 72.3239 29.2769 71.8622 29.2769Z" fill="white" style="fill:white;fill:white;fill-opacity:1;"/>
</svg>
